# AST/ASF file generated using VICON BodyLanguage
# -----------------------------------------------
:version 1.10
:name VICON
:units
  mass 1.0
  length 0.45
  angle deg
:documentation
   .ast/.asf automatically generated from VICON data using
   VICON BodyBuilder and BodyLanguage model FoxedUp or BRILLIANT.MOD
:root
   order TX TY TZ RX RY RZ
   axis XYZ
   position 0 0 0  
   orientation 0 0 0 
:bonedata
  begin
     id 1 
     name lhipjoint
     direction 0.440178 -0.822639 0.359871 
     length 2.53113 
     axis 0 0 0  XYZ
  end
  begin
     id 2 
     name lfemur
     direction 0.34202 -0.939693 0  
     length 7.88132  
     axis 0 0 20  XYZ
    dof rx ry rz
    limits (-160.0 20.0)
           (-70.0 70.0)
           (-60.0 70.0)
  end
  begin
     id 3 
     name ltibia
     direction 0.34202 -0.939693 0   
     length 8.43783   
     axis 0 0 20   XYZ
    dof rx
    limits (-10.0 170.0)
  end
  begin
     id 4 
     name lfoot
     direction 0.0886351 -0.243523 0.965837   
     length 2.63414   
     axis -90 7.62852e-016 20   XYZ
    dof rx rz
    limits (-45.0 90.0)
           (-70.0 20.0)
  end
  begin
     id 5 
     name ltoes
     direction 1.53703e-011 -4.21717e-011 1   
     length 1.31427   
     axis -90 7.62852e-016 20   XYZ
    dof rx
    limits (-90.0 20.0)
  end
  begin
     id 6 
     name rhipjoint
     direction -0.399779 -0.839773 0.367367   
     length 2.47948  
     axis 0 0 0  XYZ 
  end
  begin
     id 7 
     name rfemur
     direction -0.34202 -0.939693 0   
     length 7.74806   
     axis 0 0 -20   XYZ
    dof rx ry rz
    limits (-160.0 20.0)
           (-70.0 70.0)
           (-70.0 60.0)
  end
  begin
     id 8 
     name rtibia
     direction -0.34202 -0.939693 0   
     length 8.74432   
     axis 0 0 -20   XYZ
    dof rx
    limits (-10.0 170.0)
 end
 begin
     id 9 
     name rfoot
     direction -0.108514 -0.298139 0.948334   
     length 2.66102  
     axis -90 -7.62852e-016 -20   XYZ
    dof rx rz
    limits (-45.0 90.0)
           (-20.0 70.0)
  end
  begin
     id 10 
     name rtoes
     direction -1.53392e-011 -4.22077e-011 1   
     length 1.31983   
     axis -90 -7.62852e-016 -20   XYZ
    dof rx
    limits (-90.0 20.0)
  end
  begin
     id 11 
     name lowerback
     direction 0.0113257 0.999866 0.0118602   
     length 2.58694   
     axis 0 0 0   XYZ
    dof rx ry rz
    limits (-20.0 45.0)
           (-30.0 30.0)
           (-30.0 30.0)
  end
  begin
     id 12 
     name upperback
     direction -0.0164747 0.995193 -0.0965375   
     length 2.52368   
     axis 0 0 0   XYZ
    dof rx ry rz
    limits (-20.0 45.0)
           (-30.0 30.0)
           (-30.0 30.0)
  end
  begin
     id 13 
     name thorax
     direction -0.0194301 0.99433 -0.104552   
     length 2.56099   
     axis 0 0 0   XYZ
    dof rx ry rz
    limits (-20.0 45.0)
           (-30.0 30.0)
           (-30.0 30.0)
  end
  begin
     id 14 
     name lowerneck
     direction 0.0148543 0.995587 -0.092657   
     length 1.71582   
     axis 0 0 0   XYZ
    dof rx ry rz
    limits (-20.0 45.0)
           (-30.0 30.0)
           (-30.0 30.0)
  end
  begin
     id 15 
     name upperneck
     direction -0.0135467 0.993656 -0.111639   
     length 1.68937   
     axis 0 0 0   XYZ
    dof rx ry rz
    limits (-20.0 45.0)
           (-30.0 30.0)
           (-30.0 30.0)
  end
  begin
     id 16
     name head
     direction -0.00615349 0.999547 -0.029448  
     length 1.7462  
     axis 0 0 0   XYZ
    dof rx ry rz
    limits (-20.0 45.0)
           (-30.0 30.0)
           (-30.0 30.0)
  end
  begin
     id 17 
     name lclavicle
     direction 0.988267 0.149885 0.0293713  
     length 4.47222  
     axis 0 0 0   XYZ
    dof ry rz
    limits (-20.0 10.0)
           (0.0 20.0)
  end
  begin
     id 18 
     name lhumerus
     direction 1 -4.48986e-011 -1.14833e-027   
     length 5.37148   
     axis 180 -30 -90   XYZ
    dof rx ry rz
    limits (-60.0 90.0)
           (-90.0 90.0)
           (-90.0 90.0)
  end
  begin
     id 19
     name lradius
     direction 0.999998 0.00170963 -0.000987055   
     length 3.94212   
     axis 180 -30 -90   XYZ
    dof rx
    limits (-10.0 170.0)
  end
  begin
     id 20
     name lwrist
     direction 0.999998 7.53149e-005 -0.00194706   
     length 1.97106   
     axis 4.65056e-015 90 90   XYZ
    dof ry
    limits (-180.0 0.0)
 end
  begin
     id 21 
     name lhand
     direction 1 -4.48973e-011 -1.31746e-026   
     length 1.17917   
     axis 8.4065e-015 90 90   XYZ
    dof rx rz
    limits (-90.0 90.0)
           (-45.0 45.0)
  end
  begin
     id 22 
     name lfingers
     direction 1 -4.49107e-011 -2.63492e-026   
     length 0.950679   
     axis 1.6813e-014 90 90   XYZ
    dof rx
    limits (0.0 90.0)
  end
  begin
     id 23
     name lthumb
     direction 0.707107 -6.35048e-011 0.707107   
     length 1.36499   
     axis -90 45 2.85299e-015   XYZ
    dof rx rz
    limits (-45.0 45.0)
           (-45.0 45.0)
  end
  begin
     id 24 
     name rclavicle
     direction -0.996699 0.0642895 -0.0495725   
     length 4.62611  
     axis 0 0 0   XYZ 
    dof ry rz
    limits (-10.0 20.0)
           (-20.0 0.0)
  end
  begin
     id 25 
     name rhumerus
     direction -1 -4.48919e-011 -2.41059e-027  
     length 5.4981   
     axis 180 30 90   XYZ
    dof rx ry rz
    limits (-90.0 60.0)
           (-90.0 90.0)
           (-90.0 90.0)
  end
  begin
     id 26 
     name rradius
     direction -0.999999 0.00118101 -0.000681858   
     length 3.48381   
     axis 180 30 90   XYZ
    dof rx
    limits (-10.0 170.0)
  end
  begin
     id 27 
     name rwrist
     direction -0.999999 0.000321823 -0.00132288   
     length 1.7419   
     axis 4.65056e-015 -90 -90   XYZ
    dof ry
    limits (-180.0 0.0)
  end
  begin
     id 28
     name rhand
     direction -1 -4.49022e-011 -1.31746e-026   
     length 1.34932   
     axis 8.4065e-015 -90 -90   XYZ
    dof rx rz
    limits (-90.0 90.0)
           (-45.0 45.0)
  end
  begin
     id 29
     name rfingers
     direction -1 -4.49178e-011 -2.63492e-026   
     length 1.08785   
     axis 1.6813e-014 -90 -90   XYZ
    dof rx
    limits (0.0 90.0)
  end
  begin
     id 30
     name rthumb
     direction -0.707107 -6.34713e-011 0.707107   
     length 1.56195   
     axis -90 -45 -2.85299e-015   XYZ
    dof rx rz
    limits (-45.0 45.0)
           (-45.0 45.0)
  end
:hierarchy
  begin
    root lhipjoint rhipjoint lowerback
    lhipjoint lfemur
    lfemur ltibia
    ltibia lfoot
    lfoot ltoes
    rhipjoint rfemur
    rfemur rtibia
    rtibia rfoot
    rfoot rtoes
    lowerback upperback
    upperback thorax
    thorax lowerneck lclavicle rclavicle
    lowerneck upperneck
    upperneck head
    lclavicle lhumerus
    lhumerus lradius
    lradius lwrist
    lwrist lhand lthumb
    lhand lfingers
    rclavicle rhumerus
    rhumerus rradius
    rradius rwrist
    rwrist rhand rthumb
    rhand rfingers
  end

#!OML:ASF X:\für Bonn\!DataBase\2005_08_10_Bjorn_Final\c3d\bjorn.ASF
:FULLY-SPECIFIED
:DEGREES
16
root -12.2772 18.9049 -1.02175 1216.67 265.303 -141.966
lowerback -3.13602 3.16044 -3.98258
upperback 9.9596 4.68563 -3.7345
thorax 12.5425 1.9427 -1.23773
lowerneck -3.26294 -5.65855 -0.517949
upperneck 3.58163 -7.63956 2.49439
head 1.7923 -3.76648 0.666526
rclavicle -2.48481e-014 7.95139e-015
rhumerus -21.8798 1.50901 -92.1927
rradius 64.5134
rwrist -16.2643
rhand -9.53321 9.97417
rfingers 7.12502
rthumb 16.4331 -19.3498
lclavicle -2.48481e-014 7.95139e-015
lhumerus -30.1593 17.491 78.588
lradius 18.4247
lwrist -40.5614
lhand -12.237 -6.00232
lfingers 7.12502
lthumb 13.8286 23.518
rfemur 9.78965 -1.5259 9.73977
rtibia 44.5657
rfoot 8.1867 13.1207
rtoes -9.60701
lfemur -18.913 3.30762 -21.5948
ltibia 31.9281
lfoot -1.12984 -3.94682
ltoes -3.86647
17
root -12.4225 18.9228 -0.997454 1214.59 265.253 -139.924
lowerback -3.16759 3.15758 -4.29185
upperback 9.91893 4.7188 -3.85298
thorax 12.5034 1.93466 -1.1909
lowerneck -3.21016 -5.66143 -0.446269
upperneck 3.59858 -7.64465 2.43588
head 1.78263 -3.76963 0.637837
rclavicle 5.56597e-015 4.77083e-015
rhumerus -21.4321 1.92574 -92.0713
rradius 65.0849
rwrist -16.229
rhand -9.70987 10.3128
rfingers 7.12502
rthumb 16.263 -19.0251
lclavicle 5.56597e-015 4.77083e-015
lhumerus -29.7239 16.636 78.8958
lradius 18.9779
lwrist -39.001
lhand -12.5211 -5.97911
lfingers 7.12502
lthumb 13.5548 23.5597
rfemur 8.6082 -1.48647 9.40963
rtibia 46.5828
rfoot 8.92536 12.8629
rtoes -10.7068
lfemur -18.2668 3.31657 -21.7879
ltibia 31.8165
lfoot -1.5223 -3.9014
ltoes -3.51609
18
root -12.5662 18.9425 -0.974758 1212.75 265.243 -138.1
lowerback -3.25197 3.16553 -4.54333
upperback 9.89138 4.76644 -3.96968
thorax 12.5171 1.93806 -1.16966
lowerneck -3.25416 -5.66754 -0.354495
upperneck 3.68652 -7.65507 2.33644
head 1.81036 -3.7745 0.58899
rclavicle -3.97569e-016 -3.02153e-014
rhumerus -20.8815 2.33918 -91.9232
rradius 65.7333
rwrist -16.2027
rhand -10.0065 10.821
rfingers 7.12502
rthumb 15.9774 -18.54
lclavicle -3.97569e-016 -3.02153e-014
lhumerus -29.2774 15.7542 79.1849
lradius 19.5917
lwrist -37.4003
lhand -12.8365 -6.04898
lfingers 7.12502
lthumb 13.2508 23.5098
rfemur 7.39706 -1.44974 9.13813
rtibia 48.5387
rfoot 9.39732 12.6872
rtoes -11.7791
lfemur -17.6439 3.36395 -21.9308
ltibia 31.6821
lfoot -1.94703 -3.89217
ltoes -3.50163
19
root -12.7053 18.9645 -0.952573 1211.35 265.218 -136.735
lowerback -3.271 3.15594 -4.77452
upperback 9.85794 4.78162 -4.07696
thorax 12.4837 1.92847 -1.15683
lowerneck -3.26002 -5.67034 -0.295282
upperneck 3.75923 -7.66008 2.26112
head 1.82893 -3.77707 0.554498
rclavicle -2.38542e-015 2.70347e-014
rhumerus -20.3185 2.77766 -91.7401
rradius 66.4386
rwrist -16.1903
rhand -10.3277 11.2063
rfingers 7.12502
rthumb 15.6681 -18.1793
lclavicle -2.38542e-015 2.70347e-014
lhumerus -28.8822 14.7093 79.5043
lradius 20.2984
lwrist -35.6032
lhand -13.1821 -6.0893
lfingers 7.12502
lthumb 12.9176 23.4909
rfemur 6.19871 -1.44875 8.89197
rtibia 50.4306
rfoot 9.54682 12.6098
rtoes -12.5878
lfemur -16.9782 3.42778 -22.0591
ltibia 31.4838
lfoot -2.34453 -3.90402
ltoes -3.6626
20
root -12.8422 18.9913 -0.931958 1210.4 265.164 -135.798
lowerback -3.31657 3.1333 -4.9948
upperback 9.84066 4.78124 -4.18656
thorax 12.4873 1.9115 -1.15359
lowerneck -3.29913 -5.67702 -0.245304
upperneck 3.80589 -7.66993 2.20089
head 1.84613 -3.78186 0.525442
rclavicle 1.66979e-014 0
rhumerus -19.6442 3.13988 -91.5242
rradius 67.1966
rwrist -16.2247
rhand -10.5304 11.3569
rfingers 7.12502
rthumb 15.4728 -18.0439
lclavicle 1.66979e-014 0
lhumerus -28.4734 13.7567 79.7737
lradius 21.042
lwrist -33.9913
lhand -13.6153 -6.19495
lfingers 7.12502
lthumb 12.5 23.4112
rfemur 4.96823 -1.51234 8.66165
rtibia 52.2405
rfoot 9.43574 12.5895
rtoes -13.3971
lfemur -16.3102 3.44509 -22.1823
ltibia 31.2159
lfoot -2.71332 -3.92591
ltoes -3.82449
